PathFileType	4	(X/Y/Z)	Patient4_TMGait_0pt8_01_left_27.trc.trc
DataRate	CameraRate	NumFrames	NumMarkers	Units	OrigDataRate	OrigDataStartFrame	OrigNumFrames
89.171974522293	89.171974522293	5	33	mm	89.171974522293	53	       141
Frame#	Time	Sacral			L.Shoulder			Chest			R.Shoulder			Neck			R.ASIS			L.ASIS			R.Thigh.Superior			R.Thigh.Lateral			R.Thigh.Inferior			R.Patella			L.Thigh.Superior			L.Thigh.Lateral			L.Thigh.Inferior			L.Patella			L.Shank.Superior			L.Shank.Lateral			L.Shank.Inferior			R.Shank.Superior			R.Shank.Lateral			R.Shank.Inferior			R.Heel			R.Midfoot.Superior			R.Midfoot.Lateral			R.Toe			L.Heel			L.Midfoot.Lateral			L.Midfoot.Superior			L.Toe			L.Elbow			L.Wrist			R.Elbow			R.Wrist			
		X1	Y1	Z1	X2	Y2	Z2	X3	Y3	Z3	X4	Y4	Z4	X5	Y5	Z5	X6	Y6	Z6	X7	Y7	Z7	X8	Y8	Z8	X9	Y9	Z9	X10	Y10	Z10	X11	Y11	Z11	X12	Y12	Z12	X13	Y13	Z13	X14	Y14	Z14	X15	Y15	Z15	X16	Y16	Z16	X17	Y17	Z17	X18	Y18	Z18	X19	Y19	Z19	X20	Y20	Z20	X21	Y21	Z21	X22	Y22	Z22	X23	Y23	Z23	X24	Y24	Z24	X25	Y25	Z25	X26	Y26	Z26	X27	Y27	Z27	X28	Y28	Z28	X29	Y29	Z29	X30	Y30	Z30	X31	Y31	Z31	X32	Y32	Z32	X33	Y33	Z33	

53	30.213142857143	872.800467049245	1006.416189509355	418.731012096226	1062.044112888367	1429.824840279876	240.876749070942	1153.133602056874	1366.270420062130	411.142012993768	1056.916972045041	1444.139408734884	576.843334940786	1045.493570672726	1495.941373118094	393.073257072785	1091.335529559551	945.300690682027	548.570029024605	1097.612690097128	965.220919665218	275.154237794543	1186.671388955770	785.283341944559	522.000956307321	1153.343587662645	662.267101880854	595.165110737744	1251.095212615750	630.352345793455	522.053806908614	1274.889666398813	514.406891198411	544.891732165591	1142.265245646263	752.090591261572	308.698043556003	1057.581459927867	638.218263732500	240.364637272551	1133.866561132859	558.159549326631	310.844475863654	1131.226206858431	489.076562832986	320.889286414332	1104.837978709552	417.132017727685	309.932912994600	1017.375896699426	304.222650387943	253.292306351176	1060.207867950621	192.769109193476	328.522296628816	1194.362233547763	439.336432146605	546.150295827541	1065.682339473402	409.197674795908	597.555787030875	1046.698104139030	302.038044077108	547.620334109473	843.920967259158	252.027470701327	502.579478330316	1005.827082704338	189.956324149212	564.050270448939	893.203140649267	196.008423108373	585.351140249510	1060.642204194312	76.218757322726	602.947612542170	927.735055766216	38.267296399300	364.129552505744	1003.386550677283	35.114630044103	284.957361499463	1085.321562695499	97.024409354831	315.161494048142	1214.411588336716	48.040269934920	288.775584265217	1089.927171928926	1084.566304507778	107.391836665518	1226.178321374426	859.874997581977	110.926379023808	1009.734789831664	1097.893330382754	694.785797691240	1184.011926978068	906.274838906112	678.220439320569	
54	30.224357142857	871.644097841948	1006.199066445338	417.606340106074	1062.860845794894	1430.456541147445	241.556745953306	1152.400313457172	1366.321658252729	412.457085813842	1054.691622694285	1443.666371234372	577.511288284730	1045.438377486958	1496.152802464900	393.838871987644	1089.887346239379	946.136881370789	549.033826276165	1097.513825789856	965.479187444735	275.448991711538	1187.616897779772	789.241557755450	522.010719269839	1157.027645889398	665.827467853675	595.755778974850	1254.984874792729	635.468515302666	522.396011063851	1281.746245974588	520.815533282684	545.740613836922	1139.805474637584	751.032197989720	308.964956719083	1053.687801582949	638.041595591693	240.103081820405	1128.434623149721	557.011694635343	310.812155924570	1124.822734527195	488.110885152992	320.976157597510	1098.207303849859	416.430448319430	309.922428312929	1010.218488862289	304.037053174759	253.156596641025	1051.959143872385	192.367904992683	328.617795744092	1204.323734224913	443.004630065227	547.881178130501	1077.691690828932	406.999297359871	600.348949271945	1063.490309364118	298.706473348501	550.997241779158	863.091160729064	238.988646333338	507.527184843309	1028.007305328338	184.488573083715	568.202733662164	915.356036096839	185.675967946015	590.324523934770	1088.251321255070	73.624668208476	607.567104694554	918.694569256374	38.273615841670	364.112288218750	994.386014869782	35.106605015933	284.968043777346	1076.375938283476	96.937323724455	315.250470469267	1205.471122443361	47.813173899153	288.794437158198	1097.594080313779	1087.140639377128	105.706439489848	1247.207684140132	870.902810014752	109.872271862616	1001.695157209484	1097.249079756217	694.028898004457	1157.487555797952	889.222779062608	686.570275963488	
55	30.235571428571	870.567739689600	1006.015553574234	416.572356818946	1063.836597190851	1431.038700009786	242.374910142850	1151.849522735243	1366.267786846491	413.859628372760	1052.742453622276	1443.108120015648	578.297248539621	1045.504383100053	1496.288502151113	394.732548010418	1088.514172704657	946.813105679103	549.559049918462	1097.460653526122	965.647893208690	275.773175584698	1188.244220769995	792.724158576644	522.186920779438	1159.980926801775	668.995533569363	596.467861130674	1258.045356786950	639.911804277507	522.903315348364	1287.540669528882	526.805968996949	546.784873634036	1137.288923133287	749.923871233428	309.166704033210	1049.675101412042	637.852654933620	239.872658423993	1122.880292896417	555.854085712052	310.760610222113	1118.305641933979	487.154162960943	321.020006603533	1091.469640122970	415.735749256396	309.886287940136	1002.951313315415	303.853041139523	253.022751327643	1043.664286403349	191.980271616910	328.681277681062	1213.579416871425	446.320676029550	549.802616085355	1089.542914674159	404.012499631387	603.394804371190	1080.666993950064	294.792557342381	554.620806571239	883.448127672142	224.701910047395	512.808265505469	1051.222658617801	178.452774749161	572.565879533561	938.788429241876	174.363404810421	595.572087785872	1117.180421192175	70.945921006865	612.328249206384	909.653637560700	38.282065101008	364.093689632645	985.376957688013	35.096642819352	284.971537406842	1067.427236639662	96.856676102397	315.316749929942	1196.523930057168	47.583213193343	288.809169337186	1104.747615443510	1089.694236195776	104.348895912176	1267.380383169316	882.883345840337	109.335674890472	994.328816042978	1096.623542194008	693.346302156872	1130.091690796222	874.508918953061	694.531483807208	
56	30.246785714286	869.607157707439	1005.883923573747	415.641092039983	1064.959706620882	1431.577851149874	243.337369913348	1151.497565141440	1366.117005199716	415.339137151027	1051.114819708346	1442.469388034146	579.211247033861	1045.693155243388	1496.351831150618	395.762999630197	1087.230579270475	947.320736362436	550.121756650943	1097.454978425742	965.724402974177	276.122813607484	1188.541234280456	795.657492875225	522.512114910126	1162.146949590928	671.688713829475	597.305921247490	1260.234658752106	643.582177226040	523.592759727740	1292.189996303441	532.273372458388	548.022749286703	1134.721348181548	748.766592935501	309.355446587664	1045.558460589506	637.660752604074	239.689103653195	1117.200920571412	554.693454966629	310.723199714862	1111.670342850072	486.214520565175	321.051938704747	1084.622736153008	415.058092347675	309.846601503957	995.581075465626	303.676606335515	252.900053472243	1035.326492922091	191.610858720582	328.727387211155	1222.048896354530	449.253742452938	551.896095560871	1101.227193923729	400.308881870346	606.674642491994	1098.187451680902	290.454847361991	558.455600735292	905.071091848090	209.483371310724	518.377385029669	1075.417307032254	172.094284718185	577.071274195221	963.523066103683	162.368945009042	601.021060205761	1147.265606944166	68.459346486261	617.101966547706	900.614764954125	38.294575919289	364.073797261944	976.359530329883	35.087541878407	284.970438294144	1058.475492351770	96.782196344368	315.366961722047	1187.567633665954	47.350893714761	288.822309316934	1111.389623564116	1092.177646637446	103.339682285618	1286.573015931557	895.742595549656	109.314468501913	987.494249968835	1096.099733624106	692.790271953269	1102.219522350797	862.349865638444	702.004919736068	
57	30.258000000000	868.800348241390	1005.807884384733	414.827268346825	1066.213644261259	1432.074961393386	244.447917659644	1151.355050330765	1365.874719036381	416.884822667548	1049.844181480218	1441.754449236569	580.259780358901	1046.004510811934	1496.342321086820	396.938428294709	1086.056311397810	947.654982580066	550.707101048887	1097.499899841964	965.704210080163	276.502065330568	1188.498611005672	797.967589086144	522.977502004970	1163.474497238672	673.825282083660	598.276870985571	1261.518933718351	646.391360688054	524.481538068624	1295.631619115658	537.121808231096	549.442458413075	1132.111810777395	747.558461729367	309.581699070418	1041.357450394376	637.471320534649	239.563886105377	1111.401651676202	553.535279973142	310.724694074762	1104.921001595468	485.298426418515	321.093320937340	1077.671074073839	414.406166915574	309.818457420326	988.116784448598	303.512909625796	252.795483132756	1026.951111465802	191.263346569028	328.767476968430	1229.662434876057	451.781620812906	554.137598782059	1112.730405939267	395.982489074543	610.167643139129	1115.984814491403	285.866561906248	562.461351424620	927.990825865470	193.665700008682	524.187993989857	1100.495929137677	165.688366902988	581.653106236637	989.542385741979	150.016963895826	606.599484621129	1178.313195182035	66.464433926755	621.760022557843	891.579745608021	38.313529558754	364.052898874953	967.334466813270	35.081703334278	284.967436853537	1049.520906947233	96.712995059768	315.406951753760	1178.600467844165	47.117208096717	288.835649048087	1117.541259931191	1094.548777539108	102.693098509464	1304.679024107508	909.389997768691	109.807011389759	981.028401429781	1095.769944259816	692.419672033518	1074.302228164914	852.865610233092	708.912713034453	
